<?xml version="1.0" encoding="UTF-8" standalone="no"?>
<!-- Created with Inkscape (http://www.inkscape.org/) -->

<svg
   width="129.55408mm"
   height="25.26124mm"
   viewBox="0 0 129.55408 25.26124"
   version="1.1"
   id="svg5"
   inkscape:version="1.1.2 (b8e25be833, 2022-02-05)"
   sodipodi:docname="logo-HC.svg"
   xmlns:inkscape="http://www.inkscape.org/namespaces/inkscape"
   xmlns:sodipodi="http://sodipodi.sourceforge.net/DTD/sodipodi-0.dtd"
   xmlns="http://www.w3.org/2000/svg"
   xmlns:svg="http://www.w3.org/2000/svg">
  <sodipodi:namedview
     id="namedview7"
     pagecolor="#ffffff"
     bordercolor="#666666"
     borderopacity="1.0"
     inkscape:pageshadow="2"
     inkscape:pageopacity="0.0"
     inkscape:pagecheckerboard="0"
     inkscape:document-units="mm"
     showgrid="false"
     fit-margin-top="0"
     fit-margin-left="0"
     fit-margin-right="0"
     fit-margin-bottom="0"
     inkscape:zoom="0.733172"
     inkscape:cx="131.61987"
     inkscape:cy="62.741076"
     inkscape:window-width="1904"
     inkscape:window-height="993"
     inkscape:window-x="17"
     inkscape:window-y="4"
     inkscape:window-maximized="0"
     inkscape:current-layer="text2918" />
  <defs
     id="defs2" />
  <g
     inkscape:label="Calque 1"
     inkscape:groupmode="layer"
     id="layer1"
     transform="translate(-7.9392467,-9.7436209)">
    <g
       aria-label="Hicking Club"
       id="text2918"
       style="font-size:10.5833px;line-height:1.25;font-family:'Berlin Sans FB Demi';-inkscape-font-specification:'Berlin Sans FB Demi';stroke-width:0.264583">
      <path
         d="m 25.411549,28.123455 q 0,0.18762 -0.08041,0.23228 -0.03573,0.0268 -0.250157,0.0446 -0.544988,0.0536 -1.536685,0.0536 -1.402669,0 -1.652828,-0.0536 -0.241223,-0.0536 -0.241223,-0.24121 0,-0.70582 0.06253,-2.11741 0.07147,-1.42054 0.07147,-2.12635 0,-0.34842 -0.196553,-0.40204 -0.303762,-0.0714 -2.162078,-0.0714 -1.867248,0 -2.179945,0.0714 -0.196551,0.0446 -0.196551,0.40204 0,0.69687 0.04467,2.09061 0.04467,1.3848 0.04467,2.08166 0,0.26803 -0.241224,0.3127 -0.285894,0.0536 -1.67963,0.0536 -1.206116,0 -1.536683,-0.0536 -0.259092,-0.0446 -0.259092,-0.27695 0,-0.9649 0.08935,-2.91256 0.09827,-1.94765 0.09827,-2.92149 0,-1.03636 -0.08935,-3.1091 -0.08935,-2.08167 -0.08935,-3.11803 0,-0.19656 0.187618,-0.19656 0.27696,0 0.830881,0.0268 0.562855,0.0268 0.839815,0.0268 0.285894,0 0.857683,-0.0268 0.580724,-0.0268 0.866618,-0.0268 0.151882,0 0.151882,0.16079 0,0.67006 -0.09827,2.01018 -0.09827,1.33121 -0.09827,2.00127 0,0.3127 0.169759,0.36631 0.232289,0.0714 2.287155,0.0714 1.911919,0 2.215684,-0.0714 0.21442,-0.0536 0.21442,-0.36631 0,-0.64326 -0.06253,-1.93871 -0.06253,-1.30441 -0.06253,-1.9566 0,-0.27696 0.223356,-0.27696 0.259091,0 0.78621,0.0268 0.536051,0.0268 0.804077,0.0268 0.259092,0 0.78621,-0.0268 0.536053,-0.0268 0.80408,-0.0268 0.259091,0 0.259091,0.21441 0,1.02744 -0.08935,3.10018 -0.08041,2.07274 -0.08041,3.1091 0,0.97384 0.08935,2.92149 0.09827,1.94765 0.09827,2.91256 z"
         id="path9950"
         style="stroke-width:0.457431" />
      <path
         d="m 30.530847,17.661485 q 0,1.55456 -1.751102,1.55456 -0.750475,0 -1.241857,-0.3931 -0.53605,-0.42885 -0.53605,-1.16146 0,-0.69686 0.55392,-1.14356 0.509249,-0.41098 1.223987,-0.41098 0.696866,0 1.206116,0.41991 0.544986,0.44671 0.544986,1.13463 z m -0.23229,6.63812 q 0,0.6522 0.0268,1.94765 0.0268,1.28653 0.0268,1.92979 0,0.18762 -0.223354,0.22336 -0.303764,0.0536 -1.366935,0.0536 -1.072104,0 -1.375867,-0.0536 -0.196552,-0.0358 -0.241222,-0.11618 -0.01785,-0.0358 -0.01785,-0.26803 0,-0.61645 0.0268,-1.84938 0.02679,-1.24186 0.02679,-1.86724 0,-2.53732 -0.19655,-4.03827 -0.01787,-0.14298 -0.01787,-0.18762 0,-0.17868 0.241224,-0.17868 0.250157,0 0.759408,0.0536 0.518183,0.0536 0.777275,0.0536 0.259092,0 0.777277,-0.0446 0.518183,-0.0446 0.777275,-0.0446 0.21442,0 0.21442,0.17868 0,0.0358 -0.01785,0.16978 -0.196553,1.74217 -0.196553,4.03826 z"
         id="path9952"
         style="stroke-width:0.457431" />
      <path
         d="m 42.051044,22.566365 q 0,1.97447 -1.938722,3.00189 -0.178685,0.0894 -0.178685,0.18762 0,0.15197 0.830882,1.26867 0.830881,1.10783 0.830881,1.16144 0,0.24122 -2.367564,0.24122 -0.911288,0 -1.054236,-0.23228 -0.357368,-0.59859 -1.116776,-1.71538 -0.04467,-0.0536 -1.608156,-0.12517 0,0.27697 0.009,0.8845 0.009,0.60753 0.009,0.90235 0,0.26803 -0.259094,0.29483 -0.16082,0.0178 -1.411604,0.0178 -1.081036,0 -1.259721,-0.0358 -0.241225,-0.0446 -0.241225,-0.36631 v -5.46773 q 0,-1.09891 -0.08041,-3.28779 -0.08041,-2.18888 -0.08041,-3.27885 0,-0.21442 0.241222,-0.22336 0.473513,0 1.420539,-0.0178 0.250157,-0.0178 0.866616,-0.10719 0.544988,-0.0804 0.857684,-0.0804 0.142944,0 0.142944,0.25911 0,0.3395 -0.05361,0.92021 -0.06253,0.679 -0.07147,0.92915 -0.08041,1.92086 -0.08041,2.97509 0,0.25017 0.06253,0.25911 0.08041,-0.0536 0.214422,-0.19656 1.161447,-1.20611 2.823208,-1.20611 1.563485,0 2.48371,0.71473 1.009564,0.79515 1.009564,2.32289 z m -3.546878,0.58074 q 0,-1.08106 -1.223987,-1.08106 -0.544986,0 -1.161447,0.41098 -0.661129,0.43778 -0.661129,0.95596 0,0.74154 0.205485,0.89342 0.160819,0.10719 1.027434,0.10719 1.813644,0 1.813644,-1.28653 z"
         id="path9956"
         style="stroke-width:0.457431" />
      <path
         d="m 46.661094,17.661485 q 0,1.55456 -1.751102,1.55456 -0.750475,0 -1.241854,-0.3931 -0.536053,-0.42885 -0.536053,-1.16146 0,-0.69686 0.55392,-1.14356 0.509249,-0.41098 1.223987,-0.41098 0.696866,0 1.206114,0.41991 0.544988,0.44671 0.544988,1.13463 z m -0.232289,6.63812 q 0,0.6522 0.0268,1.94765 0.0268,1.28653 0.0268,1.92979 0,0.18762 -0.223356,0.22336 -0.303762,0.0536 -1.366933,0.0536 -1.072103,0 -1.375867,-0.0536 -0.196552,-0.0358 -0.241224,-0.11618 -0.01785,-0.0358 -0.01785,-0.26803 0,-0.61645 0.0268,-1.84938 0.0268,-1.24186 0.0268,-1.86724 0,-2.53732 -0.196552,-4.03827 -0.01787,-0.14298 -0.01787,-0.18762 0,-0.17868 0.241224,-0.17868 0.250159,0 0.759408,0.0536 0.518183,0.0536 0.777275,0.0536 0.259092,0 0.777277,-0.0446 0.518183,-0.0446 0.777275,-0.0446 0.21442,0 0.21442,0.17868 0,0.0358 -0.01785,0.16978 -0.196553,1.74217 -0.196553,4.03826 z"
         id="path9958"
         style="stroke-width:0.457431" />
      <path
         d="m 57.033702,28.141315 q 0,0.24123 -0.250157,0.27697 -0.250157,0.0358 -1.304393,0.0358 -1.12571,0 -1.393737,-0.0536 -0.268026,-0.0536 -0.268026,-0.3663 0,-0.41991 0.0268,-1.26865 0.0268,-0.84876 0.0268,-1.27759 0,-0.33058 -0.01785,-0.98276 -0.01787,-0.66115 -0.01787,-0.99171 0,-1.22399 -1.063168,-1.22399 -0.348436,0 -0.813012,0.30376 -0.500316,0.3395 -0.500316,0.67008 v 4.82446 q 0,0.29484 -0.276962,0.33057 -0.312696,0.0358 -1.27759,0.0358 -1.045302,0 -1.358,-0.0536 -0.276959,-0.0446 -0.276959,-0.29483 0,-0.69688 0.009,-2.09953 0.009,-1.40268 0.009,-2.10847 0,-2.22462 -0.348433,-3.49327 -0.01787,-0.0804 -0.01787,-0.13399 0,-0.14298 0.134004,-0.19656 0.562856,-0.0626 1.500946,-0.19654 1.420539,-0.27696 1.599224,-0.27696 0.09827,0 0.151881,0.60752 0.05361,0.59859 0.151882,0.59859 -0.09827,0 0.95596,-0.61646 1.063169,-0.62539 1.858314,-0.62539 1.134645,0 1.89405,0.53606 0.848749,0.61645 0.848749,1.71536 v 2.85 q 0,0.58073 0.009,1.74218 0.009,1.1525 0.009,1.73323 z"
         id="path9960"
         style="stroke-width:0.457431" />
      <path
         d="m 67.424186,26.077515 q 0,2.54624 -1.07211,3.65409 -1.10784,1.13465 -3.68089,1.13465 -0.750473,0 -2.045933,-0.24123 -1.652829,-0.30377 -1.652829,-0.71474 0,-0.16977 0.384173,-1.75109 0.06253,-0.25017 0.19655,-0.25017 0.04467,0.009 0.09827,0.0358 1.375867,0.67901 2.546249,0.67901 0.64326,0 1.27759,-0.32163 0.76834,-0.38417 0.76834,-0.9649 v -0.59859 q -0.91129,0.85769 -2.340761,0.85769 -1.679631,0 -2.760667,-1.20611 -1.045304,-1.16146 -1.045304,-2.85896 0,-1.70643 1.000632,-2.83213 1.045302,-1.17039 2.733867,-1.17039 1.349063,0 2.063803,0.96489 0.14294,0.19656 0.19655,0.19656 0.0804,0 0.0804,-0.32163 0,-0.71475 0.16082,-0.71475 0.14294,0 1.54562,0.15197 1.40267,0.14298 1.45627,0.16079 0.15188,0.0536 0.15188,0.23229 0,0.61646 -0.0447,1.84044 -0.0357,1.224 -0.0357,1.84044 0,0.36632 0.009,1.09891 0.009,0.73262 0.009,1.09891 z m -3.09124,-2.47477 q 0,-0.6522 -0.43778,-1.12572 -0.42884,-0.48245 -1.08103,-0.48245 -0.652203,0 -1.089978,0.49138 -0.428839,0.48245 -0.428839,1.13465 0,0.6522 0.437774,1.12571 0.446712,0.47352 1.081043,0.47352 0.65219,0 1.08103,-0.48246 0.43778,-0.48244 0.43778,-1.13463 z"
         id="path9962"
         style="stroke-width:0.457431" />
      <path
         d="m 105.66387,26.381275 q 0,0.14298 -0.18762,0.37524 -1.6439,1.95659 -4.36883,1.95659 -2.787474,0 -4.520704,-1.90299 -1.68857,-1.84045 -1.68857,-4.64578 0,-2.716 1.65283,-4.61006 1.7243,-1.98338 4.386694,-1.98338 2.89468,0 4.53858,1.77791 0.17868,0.19654 0.17868,0.34842 0,0.16977 -0.62539,1.25973 -0.61646,1.08997 -0.77728,1.22398 -0.0715,0.0714 -0.17868,0.0714 -0.0447,0 -0.44671,-0.35738 -0.48245,-0.42885 -0.94703,-0.67006 -0.7058,-0.35738 -1.46521,-0.35738 -1.313334,0 -2.099534,0.98277 -0.72368,0.91129 -0.72368,2.25141 0,1.358 0.72368,2.27823 0.7862,1.00063 2.099534,1.00063 0.77728,0 1.47415,-0.3395 0.45564,-0.22336 0.92915,-0.62539 0.39311,-0.3395 0.43778,-0.3395 0.0893,0 0.17868,0.0982 0.14295,0.16079 0.77728,1.11679 0.6522,0.99168 0.6522,1.08997 z"
         id="path9964"
         style="stroke-width:0.457431" />
      <path
         d="m 109.81827,23.022015 q 0,2.43904 0.0179,3.74344 0,0.20548 0.0268,0.7058 0.0268,0.45564 0.0268,0.70579 0,0.18762 -0.22336,0.22336 -0.40203,0.0714 -1.44734,0.0714 -1.0721,0 -1.36693,-0.0714 -0.19655,-0.0446 -0.22335,-0.24121 0,-0.0268 0,-0.38418 0,-0.79515 0.0179,-2.3765 0.0178,-1.59029 0.0178,-2.3765 0,-3.75236 0.009,-3.4218 -0.0268,-1.97446 -0.22335,-3.40394 -0.0179,-0.0982 -0.0179,-0.15196 0,-0.19654 0.23229,-0.19654 h 3.18951 q 0.22335,0 0.20548,0.18761 l -0.009,0.16079 q -0.23229,3.85959 -0.23229,6.82574 z"
         id="path9966"
         style="stroke-width:0.457431" />
      <path
         d="m 120.64652,20.279215 q 0,0.66113 -0.0625,1.98339 -0.0625,1.32226 -0.0625,1.98341 0,0.64324 0.0447,1.92977 0.0447,1.28653 0.0447,1.92086 0,0.24123 -0.22335,0.30376 -0.3395,0.0894 -1.43841,0.0894 -0.97383,0 -1.358,-0.0536 -0.16974,-0.0268 -0.21442,-0.21442 -0.0268,-0.26803 -0.0536,-0.53605 -0.0447,-0.41098 -0.12508,-0.41098 0.12508,0 -0.90236,0.60753 -1.02743,0.60753 -1.86725,0.60753 -2.36756,0 -2.80534,-2.13529 -0.19655,-0.99168 -0.19655,-2.8768 0,-2.037 0.33057,-3.21632 0.0983,-0.3663 0.3663,-0.3663 0.41097,0 1.25079,0.009 0.83981,0.009 1.25079,0.009 0.27696,0 0.27696,0.23228 0,0.0626 -0.0179,0.18762 -0.18761,1.21505 -0.18761,2.46584 0,1.55456 0.0983,2.12634 0.16083,0.98276 1.17039,0.98276 0.3931,0 0.84875,-0.34842 0.46457,-0.34844 0.48244,-0.72368 0.0179,-0.33056 0.0179,-4.48497 0,-0.29483 0.0447,-0.34844 0.0536,-0.0894 0.32163,-0.0894 0.43778,0 1.31333,0.009 0.88449,0.009 1.32226,0.009 0.26803,0 0.3127,0.13399 0.0179,0.0714 0.0179,0.21441 z"
         id="path9968"
         style="stroke-width:0.457431" />
      <path
         d="m 131.80534,24.031575 q 0,1.87618 -1.0721,3.13591 -1.14358,1.34013 -2.98402,1.34013 -1.34013,0 -2.16208,-0.76833 -0.0625,-0.0536 -0.10721,-0.0536 -0.0893,0 -0.16976,0.33056 -0.0715,0.33058 -0.17868,0.36632 -0.15189,0.0446 -2.54625,0.0446 -0.56286,0 -0.56286,-0.20547 0,-0.0268 0.0179,-0.13399 0.17868,-1.42054 0.17868,-5.41413 0,-3.81489 -0.26803,-6.6381 l -0.009,-0.0982 q 0,-0.14298 0.27697,-0.16078 0.19655,-0.009 1.55455,-0.13399 0.95596,-0.0894 1.55455,-0.0894 0.16976,0 0.16976,0.29485 0,0.34842 -0.0447,0.92021 -0.0536,0.7058 -0.0625,0.92915 -0.0447,0.8845 -0.0447,2.41224 0,0.27696 0.14295,0.27696 0.0715,0 0.13402,-0.0714 0.80408,-0.85768 2.10847,-0.85768 1.95659,0 3.0555,1.33119 1.0185,1.23293 1.0185,3.24312 z m -3.23418,-0.0982 q 0,-0.74153 -0.45564,-1.25079 -0.45565,-0.51818 -1.18825,-0.51818 -0.75048,0 -1.18825,0.51818 -0.42884,0.50926 -0.42884,1.26865 0,0.78621 0.4199,1.26867 0.44671,0.50924 1.21506,0.50924 0.75941,0 1.20611,-0.52712 0.41991,-0.49138 0.41991,-1.26865 z"
         id="path9970"
         style="stroke-width:0.457431" />
      <circle
         id="path12503"
         style="fill:#4d77ff;stroke:#000000;stroke-width:0.0700042"
         cx="41.861481"
         cy="99.962334"
         r="0.048068177" />
      <circle
         id="path12505"
         style="fill:#4d77ff;stroke:#000000;stroke-width:0.0700042"
         cx="41.861481"
         cy="99.962334"
         r="0.048068177" />
      <g
         id="g26996"
         transform="matrix(0.31653277,0,0,0.31653277,28.848765,-8.8372547)">
        <path
           style="fill:none;stroke:#00d1b2;stroke-width:3.56718;stroke-linecap:butt;stroke-linejoin:miter;stroke-miterlimit:4;stroke-dasharray:none;stroke-opacity:1"
           d="m 167.8068,120.17132 2.52613,-12.99149 h 11.54799 l -3.24787,-34.643985"
           id="path19864" />
        <path
           id="path23027"
           style="fill:#006757;fill-opacity:1;stroke:none;stroke-width:2.44008;stroke-miterlimit:4;stroke-dasharray:none;stroke-opacity:1"
           inkscape:transform-center-x="-1.1545467e-06"
           inkscape:transform-center-y="-1.153692"
           d="m 140.97657,72.673237 -3.38607,6.922015 h 1.84256 l -4.14714,8.477678 h 3.106 l -4.59651,9.395567 h 6.2144 v 6.830463 h 1.79588 v -6.830463 h 6.05221 l -4.59573,-9.395567 h 3.08149 l -4.14715,-8.477678 h 2.16613 z" />
        <path
           id="path23027-3"
           style="font-size:10.5833px;line-height:1.25;font-family:'Berlin Sans FB Demi';-inkscape-font-specification:'Berlin Sans FB Demi';fill:#006757;fill-opacity:1;stroke:none;stroke-width:2.0054;stroke-miterlimit:4;stroke-dasharray:none;stroke-opacity:1"
           inkscape:transform-center-x="-4.0656763e-06"
           inkscape:transform-center-y="-0.77950617"
           d="m 156.53995,77.723006 -3.38498,4.676948 h 1.84197 l -4.14581,5.728052 h 3.10501 l -4.59504,6.348228 h 6.21241 v 4.61512 h 1.7953 v -4.61512 h 6.05027 l -4.59426,-6.348228 h 3.0805 l -4.14583,-5.728052 h 2.16545 z" />
        <path
           style="fill:none;stroke:#00d1b2;stroke-width:3.56718;stroke-linecap:butt;stroke-linejoin:miter;stroke-miterlimit:4;stroke-dasharray:none;stroke-opacity:1"
           d="m 132.08019,120.17132 67.84447,0.36088 -21.29161,-47.996355 -11.548,26.343864 -23.09599,2.887001 z"
           id="path12542" />
      </g>
      <rect
         style="fill:none;fill-opacity:1;stroke:none;stroke-width:5.21801;stroke-miterlimit:4;stroke-dasharray:none;stroke-opacity:1"
         id="rect27282"
         width="129.55408"
         height="25.26124"
         x="7.9392467"
         y="9.7436209"
         rx="3.2196351e-15" />
    </g>
  </g>
</svg>
